<svg xmlns="http://www.w3.org/2000/svg" xmlns:xlink="http://www.w3.org/1999/xlink" viewBox="0 0 222 222"><defs><style>.cls-1{opacity:0.5;}.cls-2{fill:url(#Degradado_sin_nombre_2);}.cls-3{fill:#f5f5f5;}.cls-4{fill:#575a89;}.cls-5{opacity:0.1;isolation:isolate;}.cls-6{fill:#fdb797;}.cls-7{fill:#2f2e41;}</style><linearGradient id="Degradado_sin_nombre_2" x1="-184.66" y1="529.1" x2="-184.66" y2="530.1" gradientTransform="matrix(222, 0, 0, -222, 41106, 117682.61)" gradientUnits="userSpaceOnUse"><stop offset="0" stop-color="gray" stop-opacity="0.25"/><stop offset="0.54" stop-color="gray" stop-opacity="0.12"/><stop offset="1" stop-color="gray" stop-opacity="0.1"/></linearGradient></defs><title>Mujer_1</title><g id="Capa_2" data-name="Capa 2"><g id="aa148906-9946-4a00-bfdb-f78e96a2b6cd"><g id="Grupo_63" data-name="Grupo 63" class="cls-1"><circle id="Elipse_12" data-name="Elipse 12" class="cls-2" cx="111" cy="111" r="111"/></g><circle id="Elipse_13" data-name="Elipse 13" class="cls-3" cx="111.08" cy="110.15" r="108.79"/><path id="Trazado_94" data-name="Trazado 94" class="cls-4" d="M111.18,219.38a108.35,108.35,0,0,0,59.8-17.9c-4-21.91-19.26-23.16-19.26-23.16H67.58s-14.4,1.18-18.89,21.34A108.32,108.32,0,0,0,111.18,219.38Z"/><path id="Trazado_95" data-name="Trazado 95" class="cls-5" d="M93.08,151.6h33.65v26.92a16.82,16.82,0,0,1-16.82,16.82h0a16.82,16.82,0,0,1-16.82-16.82V151.6Z"/><path id="Trazado_96" data-name="Trazado 96" class="cls-6" d="M94.14,150.35h31.53a1.07,1.07,0,0,1,1.07,1.07v25.85a16.83,16.83,0,0,1-16.82,16.83h0a16.83,16.83,0,0,1-16.82-16.83V151.42A1.07,1.07,0,0,1,94.14,150.35Z"/><path id="Trazado_97" data-name="Trazado 97" class="cls-5" d="M93.14,164.3a48.4,48.4,0,0,0,33.65.1v-4.14H93.14Z"/><circle class="cls-7" cx="109.51" cy="112.5" r="51.66"/><ellipse class="cls-7" cx="64.02" cy="66.29" rx="21.38" ry="16.03" transform="translate(-26.93 51.45) rotate(-36.73)"/><ellipse class="cls-7" cx="150.91" cy="65.31" rx="16.03" ry="21.38" transform="translate(16.55 160.09) rotate(-58.6)"/><circle id="Elipse_15" data-name="Elipse 15" class="cls-6" cx="110.03" cy="118.33" r="48.23"/><ellipse id="Elipse_16" data-name="Elipse 16" class="cls-6" cx="61.78" cy="118.28" rx="4.49" ry="8.41"/><ellipse id="Elipse_17" data-name="Elipse 17" class="cls-6" cx="158.25" cy="118.28" rx="4.49" ry="8.41"/><path class="cls-7" d="M70.52,84.63a58.28,58.28,0,0,0,33.34,10.31,35.89,35.89,0,0,1-14.17,5.83,117.85,117.85,0,0,0,48.05.27,31.21,31.21,0,0,0,10.06-3.46,12.72,12.72,0,0,0,6.21-8.3c1.05-6-3.64-11.5-8.52-15.18A62.78,62.78,0,0,0,92.71,63.55c-5.9,1.52-11.81,4.1-15.64,8.83s-5,12-1.31,16.91Z"/></g></g></svg>