<svg xmlns="http://www.w3.org/2000/svg" xmlns:xlink="http://www.w3.org/1999/xlink" width="222" height="222" viewBox="0 0 222 222">
  <defs>
    <linearGradient id="linear-gradient" x1="0.5" y1="1" x2="0.5" gradientUnits="objectBoundingBox">
      <stop offset="0" stop-color="gray" stop-opacity="0.251"/>
      <stop offset="0.54" stop-color="gray" stop-opacity="0.122"/>
      <stop offset="1" stop-color="gray" stop-opacity="0.102"/>
    </linearGradient>
  </defs>
  <g id="Grupo_64" data-name="Grupo 64" transform="translate(-1635.273 -191.273)">
    <g id="Grupo_63" data-name="Grupo 63" transform="translate(1635 191)" opacity="0.5">
      <circle id="Elipse_12" data-name="Elipse 12" cx="111" cy="111" r="111" transform="translate(0.273 0.273)" fill="url(#linear-gradient)"/>
    </g>
    <circle id="Elipse_13" data-name="Elipse 13" cx="108.793" cy="108.793" r="108.793" transform="translate(1637.56 192.634)" fill="#f5f5f5"/>
    <path id="Trazado_94" data-name="Trazado 94" d="M467.251,702.894a108.271,108.271,0,0,0,59.8-17.9c-4.009-21.909-19.266-23.157-19.266-23.157H423.653s-14.4,1.181-18.893,21.336A108.293,108.293,0,0,0,467.251,702.894Z" transform="translate(1279.204 -292.244)" fill="#575a89"/>
    <circle id="Elipse_14" data-name="Elipse 14" cx="52.511" cy="52.511" r="52.511" transform="translate(1692.788 246.622)" fill="#333"/>
    <path id="Trazado_95" data-name="Trazado 95" d="M293.15,476.92H326.8v26.918a16.823,16.823,0,0,1-16.817,16.823h0a16.823,16.823,0,0,1-16.823-16.823V476.92Z" transform="translate(1435.202 -134.048)" opacity="0.1"/>
    <path id="Trazado_96" data-name="Trazado 96" d="M294.23,473h31.526a1.067,1.067,0,0,1,1.067,1.067v25.851a16.824,16.824,0,0,1-16.833,16.827h0a16.823,16.823,0,0,1-16.823-16.823V474.067A1.067,1.067,0,0,1,294.23,473Z" transform="translate(1435.188 -131.376)" fill="#fdb797"/>
    <path id="Trazado_97" data-name="Trazado 97" d="M544.34,609.157a48.426,48.426,0,0,0,33.647.092v-4.14H544.34Z" transform="translate(1184.072 -253.58)" opacity="0.1"/>
    <circle id="Elipse_15" data-name="Elipse 15" cx="48.228" cy="48.228" r="48.228" transform="translate(1697.071 261.373)" fill="#fdb797"/>
    <path id="Trazado_98" data-name="Trazado 98" d="M489.49,309.726s20.326,41.258,77.662,17.3L553.8,306.093,530.139,297.6Z" transform="translate(1221.456 -43.994)" opacity="0.1"/>
    <path id="Trazado_99" data-name="Trazado 99" d="M489.49,307.813s20.326,41.258,77.662,17.291L553.8,304.173l-23.664-8.493Z" transform="translate(1221.456 -42.685)" fill="#333"/>
    <path id="Trazado_100" data-name="Trazado 100" d="M486.775,253.771a27.861,27.861,0,0,1,6.907-11.231c9.486-9.378,25.039-11.356,33.016-22.049a6.244,6.244,0,0,1-2.866,8.8c7.643-.051,16.5-.72,20.82-7.006a14.3,14.3,0,0,1-2.411,15.094c6.773.318,14.011,4.9,14.438,11.671.293,4.509-2.548,8.776-6.238,11.362s-8.187,3.774-12.6,4.745C524.966,268,478.371,279.905,486.775,253.771Z" transform="translate(1223.992 8.561)" fill="#333"/>
    <ellipse id="Elipse_16" data-name="Elipse 16" cx="4.487" cy="8.413" rx="4.487" ry="8.413" transform="translate(1692.565 301.143)" fill="#fdb797"/>
    <ellipse id="Elipse_17" data-name="Elipse 17" cx="4.487" cy="8.413" rx="4.487" ry="8.413" transform="translate(1789.034 301.143)" fill="#fdb797"/>
  </g>
</svg>
