<svg xmlns="http://www.w3.org/2000/svg" xmlns:xlink="http://www.w3.org/1999/xlink" width="707" height="131" viewBox="0 0 707 131">
  <defs>
    <filter id="Blue_Moon_Shop" x="120" y="0" width="587" height="131" filterUnits="userSpaceOnUse">
      <feOffset dy="3" input="SourceAlpha"/>
      <feGaussianBlur stdDeviation="3" result="blur"/>
      <feFlood flood-opacity="0.62"/>
      <feComposite operator="in" in2="blur"/>
      <feComposite in="SourceGraphic"/>
    </filter>
  </defs>
  <g id="Grupo_58" data-name="Grupo 58" transform="translate(9 15)">
    <g transform="matrix(1, 0, 0, 1, -9, -15)" filter="url(#Blue_Moon_Shop)">
      <text id="Blue_Moon_Shop-2" data-name="Blue Moon Shop" transform="translate(129 96)" fill="#475267" font-size="90" font-family="Lobster-Regular, Lobster"><tspan x="0" y="0">Blue Moon Shop</tspan></text>
    </g>
    <g id="Grupo_1" data-name="Grupo 1" transform="translate(-9 1)">
      <path id="Trazado_11" data-name="Trazado 11" d="M45.3,11.121a1.722,1.722,0,0,1,.327-.266.642.642,0,0,0-.327.266Z" transform="translate(-2.024 -0.484)" fill="#475267"/>
      <path id="Trazado_12" data-name="Trazado 12" d="M19.026,24.52h0a.546.546,0,0,1,.147-.088.565.565,0,0,0-.147.088Z" transform="translate(-0.85 -1.091)" fill="#475267"/>
      <path id="Trazado_13" data-name="Trazado 13" d="M33.088,53.429c.358-.021.477-.116.48-.44a4.534,4.534,0,0,0,.461-1.174,1.85,1.85,0,0,0,.97-.749.424.424,0,0,1,.23-.182,1.718,1.718,0,0,1-.313.053c-.319.018-.454-.264-.639-.44a.866.866,0,0,0-.537-.233.44.44,0,0,1-.43-.338.429.429,0,0,1,.247-.5c.236-.147.518-.314.43-.637-.043-.147-.233-.264-.116-.465-.059.28-.244.335-.5.307-.179-.021-.275-.147-.407-.239a1.088,1.088,0,0,0-1.414.2,1.816,1.816,0,0,1-2.29.7,2.97,2.97,0,0,0-1.009-.131.228.228,0,0,1,.038.1.838.838,0,0,1,0,.128c.511.2.351.806.587,1.229a.769.769,0,0,1,1.22.046,1.952,1.952,0,0,0,.6.272c.181.081.417.135.408.382-.007.2-.214.285-.379.346a.367.367,0,0,1-.487-.241c-.125-.308-.294-.484-.633-.316-.069.034-.173.085-.179.138-.021.181.113.44-.219.44s-.662.125-.926-.128c-.305-.294-.724-.294-1.147-.587.082.2.119.294.147.382.078.214.565.361.147.658a.734.734,0,0,1-1.041-.282.44.44,0,0,1-.044-.11c-.078-.344-.043-.854-.457-.89a.587.587,0,0,0-.4.128,1.175,1.175,0,0,0-.015.324c.009.122-.106.211-.147.323-.1.277-.034.464.27.549.251.069.5.164.734.254.415.147.464.464.131.768a1.647,1.647,0,0,0-.42.426c.763,0,.768,0,.81.809a.653.653,0,0,0,.5.606,5.311,5.311,0,0,1,.78.366c-.025-.587.2-.665.957-.6.8.068,1.653.226,2.321-.468a.455.455,0,0,1,.489-.166c.233.092.078.319.135.473a.055.055,0,0,0,.007.034,1.07,1.07,0,0,1,1.048-1.136Z" transform="translate(-1.128 -2.15)" fill="#475267"/>
      <path id="Trazado_14" data-name="Trazado 14" d="M32.356,55.142a.519.519,0,0,0,.056.147,1,1,0,0,0-.054-.42,1.421,1.421,0,0,0,0,.273Z" transform="translate(-1.444 -2.448)" fill="#475267"/>
      <path id="Trazado_15" data-name="Trazado 15" d="M34.936,57.392a.749.749,0,0,1-.294.163h.094a.64.64,0,0,1,.722.5,2.381,2.381,0,0,0,.414.923.938.938,0,0,1,.871-1.174,2.724,2.724,0,0,1-.734-.407C35.608,57.153,35.322,57.056,34.936,57.392Z" transform="translate(-1.547 -2.552)" fill="#475267"/>
      <path id="Trazado_16" data-name="Trazado 16" d="M37.321,57.776a.734.734,0,0,1-.147.048h.054a1.775,1.775,0,0,1,.9.31.881.881,0,0,0,.94.192.863.863,0,0,1-.239-.173,1.144,1.144,0,0,0-1.5-.377Z" transform="translate(-1.661 -2.57)" fill="#475267"/>
      <path id="Trazado_17" data-name="Trazado 17" d="M39.157,58.363a.1.1,0,0,0,.019.013c.007,0,.035.015.04,0h0a.067.067,0,0,1-.04-.012Z" transform="translate(-1.747 -2.604)" fill="#475267"/>
      <path id="Trazado_18" data-name="Trazado 18" d="M46.868,74.485c-.048-.021-.1-.032-.147-.048s-.082.019-.123.023a1.028,1.028,0,0,0-.388.147c0,.04.015.076.015.117a.452.452,0,0,0,.286.423c.263.1.587.352.784-.023S47.164,74.593,46.868,74.485Z" transform="translate(-2.063 -3.324)" fill="#475267"/>
      <path id="Trazado_19" data-name="Trazado 19" d="M33.539,57.046a.5.5,0,0,1,.509.229.681.681,0,0,0,.194.184.734.734,0,0,1-.154-.23.376.376,0,0,0-.549-.182Z" transform="translate(-1.497 -2.545)" fill="#475267"/>
      <path id="Trazado_20" data-name="Trazado 20" d="M44.893,34.827c.034-.048.063-.094.054-.1-.523-.621.258-1.593-.587-2.13-.277-.178-.147-.28.09-.4.211-.11.715,0,.6-.294-.147-.386-.1-.934-.553-1.152-.366-.176-.76-.6-1.132.1-.109.207-.658.1-.832.464a2.469,2.469,0,0,1-.734,1.321.409.409,0,0,1,.035.051,1.546,1.546,0,0,1-.1.822.521.521,0,0,1-.64.41c-.644-.078-.9.217-.744.856.043.17.156.33,0,.495.3.116.578.131.734-.335a.851.851,0,0,1,.6-.185c.552.261.05.5-.018.746l-.1.04a.772.772,0,0,0-.468.323,3.122,3.122,0,0,1,.048.841h0a.856.856,0,0,1,1.016-.708c.392.053.628.474.575,1.01-.032.33,0,.675-.351.944.451.041.349-.294.348-.418a1.75,1.75,0,0,1,.341-1.158.4.4,0,0,0,.026-.493c-.22-.42-.147-.816.286-.947C43.871,34.764,44.391,34.5,44.893,34.827Z" transform="translate(-1.802 -1.358)" fill="#475267"/>
      <path id="Trazado_21" data-name="Trazado 21" d="M32.181,56.468c0,.1.01.207.01.31a.865.865,0,0,0,.026.219v-.21A.718.718,0,0,0,32.181,56.468Z" transform="translate(-1.436 -2.52)" fill="#475267"/>
      <path id="Trazado_22" data-name="Trazado 22" d="M32.356,55.581a.223.223,0,0,0,.023-.272.907.907,0,0,1-.515.716.6.6,0,0,0-.232.37c.253-.1.44-.157.524.021a1.174,1.174,0,0,1,.2-.835Z" transform="translate(-1.411 -2.468)" fill="#475267"/>
      <path id="Trazado_23" data-name="Trazado 23" d="M33.151,57.392a.452.452,0,0,0,.188-.173.573.573,0,0,1,.182-.172.474.474,0,0,0-.07.013.716.716,0,0,0-.3.332Z" transform="translate(-1.48 -2.546)" fill="#475267"/>
      <path id="Trazado_24" data-name="Trazado 24" d="M32.5,57.272a.294.294,0,0,1-.286-.251c0,.346.059.712.543.84.147.035.129.258.147.282a1.427,1.427,0,0,1,.207-.752C32.905,57.485,32.7,57.3,32.5,57.272Z" transform="translate(-1.438 -2.545)" fill="#475267"/>
      <path id="Trazado_25" data-name="Trazado 25" d="M47.871,67.07c.01-.023.021-.046.029-.07-.01.023-.025.046-.037.069Z" transform="translate(-2.136 -2.991)" fill="#475267"/>
      <path id="Trazado_26" data-name="Trazado 26" d="M34.628,57.568a.568.568,0,0,1-.352-.088.332.332,0,0,0,.352.088Z" transform="translate(-1.53 -2.566)" fill="#475267"/>
      <path id="Trazado_27" data-name="Trazado 27" d="M25.506,63.88c-.029-.084-.043-.17-.065-.255a.2.2,0,0,1-.062-.1,30.72,30.72,0,0,1-.7-3.338,1.389,1.389,0,0,0-.2-.622c-.31-.477-.556-.484-.838.012-.213.371-.427.44-.743.131-.134-.132-.368-.248-.489-.135a1.39,1.39,0,0,1-1.028.257,2.736,2.736,0,0,1,.081,1.161,3,3,0,0,0,.316,1.572.784.784,0,0,0,.935.48c.189-.021.44-.192.512.147.258-.44.617-.294.91-.1a7.9,7.9,0,0,0,1.11.711.633.633,0,0,1,.4.534.441.441,0,0,0,.053.2.121.121,0,0,1,0-.023.75.75,0,0,1-.054-.222,1.15,1.15,0,0,0-.137-.408Z" transform="translate(-0.958 -2.644)" fill="#475267"/>
      <path id="Trazado_28" data-name="Trazado 28" d="M23.326,63.392c0-.007,0-.007-.007-.015h0S23.326,63.395,23.326,63.392Z" transform="translate(-1.041 -2.829)" fill="#475267"/>
      <path id="Trazado_29" data-name="Trazado 29" d="M47.962,58.9h-.013c-.006,0,0,.034,0,.048C47.943,58.984,48.043,58.893,47.962,58.9Z" transform="translate(-2.142 -2.627)" fill="#475267"/>
      <path id="Trazado_30" data-name="Trazado 30" d="M47.947,58.893a.178.178,0,0,0-.007-.062v.01C47.933,58.874,47.933,58.888,47.947,58.893Z" transform="translate(-2.139 -2.627)" fill="#475267"/>
      <path id="Trazado_31" data-name="Trazado 31" d="M52.3,34.338A1.006,1.006,0,0,1,51.718,34c.25.192.22.363-.019.561-.185.147-.371.361-.226.622a.587.587,0,0,0,.749.207c.258-.076.677-.1.681-.38a.769.769,0,0,0-.606-.672Z" transform="translate(-2.296 -1.516)" fill="#475267"/>
      <path id="Trazado_32" data-name="Trazado 32" d="M35.692,51a3.1,3.1,0,0,0,.323-.1C35.936,50.93,35.809,50.952,35.692,51Z" transform="translate(-1.593 -2.272)" fill="#475267"/>
      <path id="Trazado_33" data-name="Trazado 33" d="M44.938,62.818a5.285,5.285,0,0,0-.2-.793c-.138.552-1.028.75-.774,1.3.2.429.062,1.054.578,1.333.1-.313.427-.454.647-.587s.518.305.871.335c.194.015.1.255.078.41-.031.194-.048.393-.07.587.248.338.636.368.991.47.166-.078.31-.191.5-.084.327.25.26.587.188.912-.012.026-.021.051-.031.078a.523.523,0,0,0,.026-.057c.179-.16.305-.012.448.06.194-.493.3-1.017.527-1.5a4.093,4.093,0,0,1-.8-1.047,1.251,1.251,0,0,0-1.11-.587,1.628,1.628,0,0,1-1.233-.534C45.211,63.371,45.013,63.213,44.938,62.818Z" transform="translate(-1.96 -2.769)" fill="#475267"/>
      <path id="Trazado_34" data-name="Trazado 34" d="M55.781,31.014c-.1.054-.269.166-.407.078h-.007a.383.383,0,0,1-.113.029c-.023.33-.021.64.44.766.137.037.354.2.405.128.242-.351.7-.2.963-.464a.137.137,0,0,0-.053-.242C56.612,31.18,56.3,30.748,55.781,31.014Z" transform="translate(-2.465 -1.381)" fill="#475267"/>
      <path id="Trazado_35" data-name="Trazado 35" d="M51.75,0A51.75,51.75,0,1,0,103.5,51.75,51.75,51.75,0,0,0,51.75,0ZM82.056,21.874a2.229,2.229,0,0,1,.772.317c.376.3.42.515-.116.634l-.251-.239a.49.49,0,0,0-.49-.154c-.247.04-.33-.1-.3-.322A.268.268,0,0,1,82.056,21.874ZM70.594,15.327c.211-.1.186-.276.206-.458A2.212,2.212,0,0,1,72.03,13.1c.358-.185.871.235,1.2.587a3.136,3.136,0,0,1,.3.44,4.023,4.023,0,0,1,.391-.147c.239-.072.379-.181.154-.413-.1-.1-.228-.2-.138-.352s.28-.135.44-.116a.919.919,0,0,1,.33.113,2.091,2.091,0,0,0,1.174.5.452.452,0,0,1,.462.546c-.045.352.568.324.587.718h0a1.164,1.164,0,0,1,.94.495,1.028,1.028,0,0,0,.429.2.807.807,0,0,1,.668.534.881.881,0,0,0,.574.517.693.693,0,0,1,.451.9.931.931,0,0,0,.233.926,2.055,2.055,0,0,1-.147,2.61c-.233.21-.368.531-.7.634a1.482,1.482,0,0,0-.185-.007c-.236.192-.565.021-.835.081a.44.44,0,0,0-.046-.029,2.69,2.69,0,0,1-.893,0,.175.175,0,0,1-.041.173.257.257,0,0,1-.324.075c-.546-.363-1.314-.327-1.709-.954h0a13.681,13.681,0,0,1-1.569-.721l-.112-.009a7.927,7.927,0,0,0-.709-.373c-.123-.04-.258-.2-.173-.316.487-.639-.147-.734-.457-.989l-.116-.007a.441.441,0,0,1,0-.48v-.116h0c-.487.2-.549-.341-.84-.486a2.135,2.135,0,0,1-1.01-1.81C70.383,15.613,70.377,15.427,70.594,15.327Zm-5.413.656c.1-.294.376-.272.617-.208.308.084.489.273.44.452-.154.577.248.762.344,1.081.056.182.255.351.069.546s-.329.043-.474-.069-.366-.01-.524-.088c-.22-.109-.734-.122-.228-.549.206-.173.059-.294-.1-.36-.5-.2-.247-.529-.145-.8ZM12.448,78.134c-.338-.05-.414-.4-.511-.668-.053-.147,0-.37.217-.349.349.034.486.31.556.6C12.7,77.927,12.67,78.165,12.448,78.134Zm3.89,1.771c-.322.27-.644.087-.925-.128a3.131,3.131,0,0,1-1.282-3.29,3.726,3.726,0,0,1,2.356,2.422.784.784,0,0,1-.15,1Zm19.5,11.157c-.216-.022-.5-.06-.47-.324s.341-.22.542-.263a.277.277,0,0,1,.368.28c0,.266-.232.283-.439.311Zm7.3,3.173-.363-.242a1.028,1.028,0,0,0-.44-.305.514.514,0,0,1-.269-.658c.07-.28.335-.245.54-.27.137-.021.28.029.417.015.819-.087,1.012.021,1.057.6.051.555-.222.806-.941.862Zm2.033-6.653c-.123.078-.186.123-.11.258h0a2.516,2.516,0,0,1-2.409.4c-.184-.078-.38-.241-.565-.147-.568.294-.777-.063-.926-.486s-.509-.658-.689-1.067c.44-.137.787.258,1.028.223.551-.081,1.2.018,1.653-.418.319-.3.457-.382.567.16a.907.907,0,0,0,1.342.6h.117c.225.179.179.358-.006.48Zm4.279-6.4c-.248,0-.429-.113-.423-.391a.316.316,0,0,1,.33-.346c.277.007.382.241.489.44a.339.339,0,0,1-.4.3ZM90.434,42.73c-.368-.034-.349-.454-.6-.611-.09.087-.11.214-.047.275a2.458,2.458,0,0,1,.5,2.53,2.174,2.174,0,0,1-1.572,1.468.314.314,0,0,1-.283-.385c.041-.555-.313-.828-.734-1.067-.919-.527-.97-.675-.642-1.691a5.535,5.535,0,0,0,.294-1.036c.021-.182.07-.363.27-.427.236-.076.294.154.43.264,0-.012.01-.018,0-.028-.352-.263-.1-.6-.113-.907,0-.082-.012-.163-.015-.245a.615.615,0,0,0-.085-.812c-.179-.169-.1-.364-.147-.546,0-.022-.01-.037-.012-.059a5.511,5.511,0,0,1-.68-.1.766.766,0,0,1-.382-.208.7.7,0,0,0-.147.018.771.771,0,0,1-.147.065.324.324,0,0,0-.182.035,2.873,2.873,0,0,0-.05.686.565.565,0,0,1-.4-.311.267.267,0,0,1-.1.05c-.517-.079-.881,0-.931.65-.026.352-.311.482-.6.2a2.7,2.7,0,0,0-1.928-.834c-.163,0-.233-.147-.322-.248-.258-.294-.44-.6-.179-.985.04-.059.087-.11.131-.164a2,2,0,0,0-.147-.267.423.423,0,0,0-.743-.05c-.188.222-.229.711-.609.571s-.329-.587-.322-.953a1.462,1.462,0,0,1,.007-.179c.06-.176.223-.182.373-.219A.03.03,0,0,1,80.3,37.2c-.01-.032-.007-.065-.016-.1a1.069,1.069,0,0,1-1.174-.286.932.932,0,0,0-.147-.508c-.117-.207-.294-.41-.076-.644a1.288,1.288,0,0,1,.821-.432c.285-.022.25.253.326.423a1.5,1.5,0,0,0,.129-.423c-.164-.505-.44-.617-1.142-.49a2.875,2.875,0,0,0-1.415-.587c-.38,0-.33-.37-.371-.642-.091-.625-.176-1.254-.327-1.87a4.194,4.194,0,0,1-.05.587c-.034.185-.021.38-.294.458s-.364-.05-.49-.206c-.029-.087-.056-.175-.091-.254H75.3c-.117,0-.311.01-.338.072-.178.42-.373.5-.722.147-.147-.147-.233.072-.294.179-.207.327-.407.5-.7.075a.768.768,0,0,0-.534-.25h-.117a1.265,1.265,0,0,1-1.21.36c-.625-.087-.562.36-.344.609.426.487.029,1.16.461,1.615a.063.063,0,0,1,0,.059c-.727.979.294,1.7.38,2.554l.346.128a1.158,1.158,0,0,1,.63.962.509.509,0,0,0,.119.332c.734.587.6,1.564,1.041,2.283.1.159.082.457.379.33.223-.1.147-.294.04-.458-.072-.11-.112-.225.018-.316s.233.034.294.113a1.586,1.586,0,0,0,2.064.323c.385-.156.86-.568,1.364-.135.078.068.176-.047.245-.123.109-.119.048-.44.294-.358.213.075.119.351.138.543v.035h.112a2.936,2.936,0,0,1,.92.286.294.294,0,0,1,.037.112c.035-.021.07-.037.109-.054a2.187,2.187,0,0,1,.477-.245c.176-.018.383-.047.389.207a1.028,1.028,0,0,0,.277.667.326.326,0,0,1-.029.477c-.28.276-.113.418.122.565.5.505.474,1.3.967,1.807a1.038,1.038,0,0,0,.294.7c.411.417.417,1.035.79,1.481.166.2-.072.405-.294.48a1.138,1.138,0,0,1-.762,0c-.147-.05-.294-.248-.423-.1s.06.319.147.462h0c-.248.188.022.546-.241.734h0a.411.411,0,0,1-.551.078,1.534,1.534,0,0,0-1.144-.233c-.587.053-1.039-.341-1.591-.341a.186.186,0,0,1-.147-.09,6.665,6.665,0,0,0-1.572-1.4,1.305,1.305,0,0,1-.354-1.333,13.021,13.021,0,0,0,.379-2.224.633.633,0,0,0-.173-.161.938.938,0,0,0-.571-.147.652.652,0,0,1-.327-.109,2.627,2.627,0,0,1-.377-.159c-.606-.311-.778-.179-.812.5-.007.147-.007.282-.028.421a.552.552,0,0,1-.426.524c-.275.048-.371-.206-.452-.4a1.455,1.455,0,0,0-1.251-.989.782.782,0,0,1-.379-.172c-.358-.3-.661-.057-.691.213-.06.587-.791.411-.912.9-.021.084-.217-.068-.192-.191a.8.8,0,0,0-.338-.838.253.253,0,0,1-.088-.208c.222-.677-.418-.553-.7-.724a.549.549,0,0,0-.857.294,1.615,1.615,0,0,1-.066-.7c-.245-.236-.078-.5.021-.7.076-.164.119-.261-.018-.386a.449.449,0,0,0-.01-.117c.383-.2.813,0,1.2-.131v-.107a5.812,5.812,0,0,1-.843-.734l-.11-.007a4.68,4.68,0,0,1-.7-.871c0,.207-.236.313-.458.393a2.256,2.256,0,0,0-.984.5c-.213.223-.527.072-.771-.076a.982.982,0,0,0-1.439.172c-.169.159-.317.38-.6.368-.832.04-.832.04-.828-.756,0-.164-.1-.433-.213-.308-.4.44-.568-.022-.816-.147-.147-.072-.275-.163-.411-.245-.3.021-.636-.07-.856.241-.364.612-.363.611-.816,0a.686.686,0,0,0-.261-.23c-.4-.157-.448-.368-.147-.662.147-.138.275-.366.05-.44-.734-.248-.743-1.241-1.574-1.42-.357-.076-.04-.473.023-.719a11.828,11.828,0,0,0-1.966-.189c-.188.028-.258-.129-.276-.317-.043-.483.371-.683.615-.976.088-.109.3.037.341.22s.147.225.294.147c.088-.046.211-.094.233-.167.056-.184-.132-.207-.241-.294-.308-.233-.771-.33-.871-.756l-.054-.022-.164-.019a1.028,1.028,0,0,1-.217-.229.225.225,0,0,1-.147-.156c-.06-.214.082-.37.235-.5l.125-.106c.026-.091.05-.185.072-.277a2.146,2.146,0,0,0-1.125,1.183.222.222,0,0,1-.313.119c.185.147.367.327.561.487a.84.84,0,0,1,.236.27c.076.16.294.426.113.49-.595.219-.147,1.164-.866,1.2-.411.021-.517.166-.367.517a2.073,2.073,0,0,1,.062.791.338.338,0,0,1,.178.047c.333.207.677.44.7.893a.778.778,0,0,1-.552.844,2.108,2.108,0,0,0-1.2,1.531.123.123,0,0,1-.037,0,1.289,1.289,0,0,1-1.314,1.679,1.794,1.794,0,0,0-.658,0,.816.816,0,0,0-.577,1.4,1.762,1.762,0,0,0,.829.57c.617.245.669.44.31,1-.2.31-.088.561.294.734a.859.859,0,0,1,.508.354c.059.106.169.217.072.294a6.792,6.792,0,0,0-.763.647c-.147.147-.352.04-.54-.029v.229c.123.319.282.277.962.09.06.147.2.223.313.316.324.258.305.558-.069,1.009-.188.1-.433.125-.558.324-.1.16-.393.217-.316.461s.351-.1.5.223a12.87,12.87,0,0,1-1.295.31,2.591,2.591,0,0,1-.255.239c-.379.031-.777.335-1.136-.056a1.639,1.639,0,0,1,0-.194,5.6,5.6,0,0,0-1.138.022l-.122.239a1.3,1.3,0,0,0-.846.515c-.031.053-.075.125-.119.128-.744.047-1.445.587-2.221.263v.009c.012.028.025.057.034.081a.782.782,0,0,0,.953.521.9.9,0,0,1,1.167.749.755.755,0,0,1-.317.937c-.421.294-.734.774-1.359.675-.21-.032-.223.137-.233.294,0,.25-.22.32-.366.452a1.041,1.041,0,0,0-.49.546c-.257.44-.223.512.285.564.38.038.711.239,1.091.294.3.05.211.333.23.573.037-.28.267-.235.449-.258.587-.069,1.158.087,1.74.046a.277.277,0,0,1,.33.272c-.04.816.6,1.089,1.139,1.389,1,.564,1.016.534,1.232,1.6.27-.327.277-.768.617-1.028.433-.338.578-.335.765.17.065.179.272.313.192.543a1.359,1.359,0,0,1-.022.257c-.01,0-.015.016-.023.021a1.854,1.854,0,0,1,1.028,1.111,3.23,3.23,0,0,1,0,2.569c-.109.276-.179.6-.524.6h0c-.01.091,0,.179-.01.267.138.354.123.785.509,1.013a5.937,5.937,0,0,1,.529.391,1.547,1.547,0,0,1,1.519.881.854.854,0,0,0,.719.467,2.55,2.55,0,0,1,1.136.349,2.9,2.9,0,0,0,.28,1.886.94.94,0,0,1-.035,1.01v.075a.25.25,0,0,1,.116,0,.953.953,0,0,1-.324,1.39,7.238,7.238,0,0,1-1.155.953c-.283.147-.324.316-.137.622.159.26.606.6.053.935a2.634,2.634,0,0,0-.351.324,1.15,1.15,0,0,1-1.321.454,1.5,1.5,0,0,0-1.456.311c-.242.214-.4.4.062.512.166.04.339.06.294.286a.324.324,0,0,1-.373.236,4.8,4.8,0,0,1-.587-.129c-.294-.069-.587-.05-.727.255-.206.474-.587.454-.956.36a3.722,3.722,0,0,0-1.478-.176c-.294.046-.42-.316-.7-.264a3.149,3.149,0,0,1-.664-.2c.022.01.048.018.07.029a3.934,3.934,0,0,1,.578.294,3.061,3.061,0,0,1,.294.721.3.3,0,0,0,.258.327.245.245,0,0,1,.2.3c-.018.178-.147.228-.282.258-.194.046-.382.117-.575.164-.294.07-.5.172-.505.534a.843.843,0,0,1-.346.539c-.147.135-.339.294-.213.5s.322.066.493.031c.467-.1.957-.147,1.186-.668.034-.076.147-.057.22-.057a.828.828,0,0,1,1,.636c.2.587-.048.9-.675.943a6.019,6.019,0,0,0-1.646.534.371.371,0,0,0-.159.567c.611.718.294,1.361-.1,2.01l-.241.236a1.481,1.481,0,0,0-1-.476c-.708-.021-.918-.681-1.333-1.07-.147-.135.1-.214.217-.258.344-.119.351-.335.189-.609a2.3,2.3,0,0,1-.366-1.308c-.373-.088-.612-.2-.22-.6.22-.222.486-.471.135-.838a.357.357,0,0,1,.1-.565c.147-.088.272-.2.411-.294a.734.734,0,0,1-.816-.526c-.1-.294-.517-.264-.812-.154-.217.082-.506.17-.484.462a.643.643,0,0,0,.587.6,1.1,1.1,0,0,1,.479.233c.313.229.294.457-.073.543s-.587.21-.656.587a.113.113,0,0,1-.053,0c-.018-.007-.028-.028-.043-.041-.785.035-.816.07-.838.959v.117a1.54,1.54,0,0,1,.718.123c.374.856.32.931-.719.967v.354c.455.081.816.119.677.819a1.217,1.217,0,0,0,.669,1.361c.17.078.352.192.255.4s-.238-.053-.357-.018c-.662.2-1.352-.166-2.027.147a1.8,1.8,0,0,1-1.565-.239.113.113,0,0,1-.019-.013A.671.671,0,0,1,40.1,84.1a.6.6,0,0,0-.007-.113.845.845,0,0,0-.116.266c-.05,1.048-.257,1.22-1.333,1.1-.078-.01-.154-.026-.233-.041a.959.959,0,0,0-.965-.721,1.1,1.1,0,0,1-.97-.48c-.454-.2-.91-.393-1.358-.6-.084-.04-.206-.147-.2-.206.043-.587-.366-.606-.772-.7-.553-.128-.835-.653-1.273-.963-.163-.116-.056-.351.038-.5.21-.324.1-.537-.147-.775a2.267,2.267,0,0,1-.332-1.862c.132-.294.418-.258.664-.317a1.233,1.233,0,0,1-.715-.969.476.476,0,0,0-.8-.305c-.16.135-.294.219-.471.116-.275-.164-.382.021-.43.217s.041.354.294.327c.319-.035.316.119.241.368-.264.881-.258.881-1.174.652-.417-.1-.636.056-.559.5a2.632,2.632,0,0,1,.075,1.334c-.119.346-.223.734-.75.407-.373-.229-.527,0-.477.363.037.294-.021.429-.336.388-.185-.021-.282.119-.4.229-.493.451-.558.426-.7-.245-.016-.081-.034-.159-.051-.236a10,10,0,0,0-.85-1.412,1.445,1.445,0,0,0-1.427-.642c-.1.219-.228.418.021.647a.756.756,0,0,1,.167.712,3.683,3.683,0,0,0-2.365-.881,2.085,2.085,0,0,0-1.4-.2c-.053.021-.147.026-.173,0-.461-.562-1.2-.612-1.793-.909-.749-.373-1.211-1.066-1.938-1.427a.693.693,0,0,0-.587-.1.587.587,0,0,1-.777-.4c-.178-.915-1-1-1.615-1.279-.7-.324-.979-.7-.753-1.468a11.942,11.942,0,0,1-.7-1.644,1.239,1.239,0,0,0-.622-.771,1.455,1.455,0,0,1-1.06-.975c-.214-.564-.756-.68-1.211-.9-.175-.09-.322,0-.279.232.021.119.068.233.084.351.025.179.05.4-.179.44s-.335-.172-.324-.344a3.214,3.214,0,0,0-.543-1.622c-.147-.316-.324-.423-.653-.335a.976.976,0,0,1-1.194-.559,2.306,2.306,0,0,0-.9-1.028c-.379-.2-.109-.539-.147-.815,0-.078,0-.156-.007-.233-.512-.294-.587-.821-.734-1.311-.084-.294-.147-.577-.223-.866C4.467,62.7,3.78,62.019,3.65,61.1a.17.17,0,0,0-.211-.161c-.222.07-.123.247-.117.4.023.721.147,1.433.21,2.151q-.186-.285-.376-.565a48.887,48.887,0,0,1-.987-11.6A54.664,54.664,0,0,1,3.783,40.51a42.941,42.941,0,0,1,2.183-6.495h0a5.222,5.222,0,0,1,.48-1.238,5.734,5.734,0,0,0,.683-1.414A44.238,44.238,0,0,1,9.647,26.8a3.073,3.073,0,0,0,.959-.467c-.512.791-1.028,1.58-1.522,2.384a18.23,18.23,0,0,0-.791,1.726c-.279.062-.349.245-.357.515s-.117.377-.307.357c.211.236.261.587.471.881a5.322,5.322,0,0,0,.818-.957,11.235,11.235,0,0,1,1.615-2.187c.57-.669,1.085-1.379,1.631-2.055a11.877,11.877,0,0,1,2.151-2.157.791.791,0,0,0,.756-.188,2.556,2.556,0,0,1,.495-.319c.832-.424,1.054-.349,1.383.461a3.783,3.783,0,0,1-.9,1.561A5.646,5.646,0,0,0,14.4,28.805c-.109.527-.6.631-1.443.424A2.393,2.393,0,0,1,12.7,31.9c-.131.176-.223.336-.471.228l-.007-.01a1.744,1.744,0,0,1-.709,1.163c-.307.186-.316.821-.907.614a.781.781,0,0,0-.043.229c.015.173.1.508.176.44.391-.338.658.587,1.006.065a.97.97,0,0,1,.677-.339c.672-.166.734-.326.373-.926-.09-.147-.175-.395.022-.382.575.037.724-.382.967-.92.147.687.643,1.028.656,1.615,0,.264.147.358.4.255.185-.075.366-.161.549-.244l-.106-.007c-.33-.294-.681-.556-.366-1.085.06-.1-.063-.294-.082-.458a1.957,1.957,0,0,1,.44-1.832l.25-.117A13.773,13.773,0,0,0,17.1,28.57a.985.985,0,0,1,1.01-.426,1.445,1.445,0,0,0,1.265-.37,4.2,4.2,0,0,1,1.1-2.817c.395-.6.856-1.152,1.288-1.726a.2.2,0,0,1,.263-.06c.021-.614.421-.7.935-.749a5.385,5.385,0,0,0,2.735-.915c-.272-.208-.618-.11-.78-.376a.339.339,0,0,1-.034-.051c-.247-.664.4-.829.683-1.191a.556.556,0,0,1,.8-.178.7.7,0,0,1-.041,1.061,3.337,3.337,0,0,1-.555.357c.615.294,1.13-.1,1.663-.269a8.075,8.075,0,0,1,2.195-.575,2.321,2.321,0,0,0,.846-.244.691.691,0,0,1,.951.44c.132.395.336.358.6.341a.834.834,0,0,1,.617.182c.134.026.233.085.245.238l.841.007a.424.424,0,0,1,.1-.063c.313-.11.3-.662.677-.587.31.056.559.341.832.531.063.044.135.078.2.122h.36a.658.658,0,0,0,.844,0h0c.258-.154.458-.43.835-.323.326.094.567.223.639.587s-.294.345-.511.524c.523.269,1.164-.063,1.562.426.012.188.091.3.294.272a1.728,1.728,0,0,1,.794.206c.241.037.44.344.722.115l.012-.715a.11.11,0,0,1,.11-.031c-.007-.131-.1-.25-.06-.386h0c-.081-.084-.088-.241-.181-.31-.392-.2-.486-.448-.156-.794a.578.578,0,0,0,.173-.308c.11-1.408,1.092-1.891,2.277-2.08.622-.1,1.157-.527,1.785-.575a1.334,1.334,0,0,1-.015-.62c.037-.392-.035-.559-.487-.474-.508.1-.8-.253-.727-.775a.322.322,0,0,1-.075.063c-.5.035-.534-.346-.617-.691a.928.928,0,0,1,.843-.587.333.333,0,0,0,.354-.373,1.3,1.3,0,0,1,.178-.26c-.556-.094-1.155.026-1.63-.379-.068-.05-.116-.122-.182-.175-.44-.344-.364-.766-.186-1.208a.4.4,0,0,1,.4-.294c.515,0,.537-.31.408-.694a.931.931,0,0,1-.029-.758.734.734,0,0,0-.175.844c.123.327-.037.47-.332.527a6.08,6.08,0,0,1-.781,0c-.656.041-.715.1-.806.78a.9.9,0,0,1-.314.521,1.481,1.481,0,0,1-1.365-.734c-.352-.417-.5-.44-.734.019a.7.7,0,0,1-.622.4c-1.113.1-1.534.948-1.948,1.8a.774.774,0,0,0,.037.529c.194.821,0,1.126-.815,1.383a2.659,2.659,0,0,1-1.468.157,4.564,4.564,0,0,1-1.719-.7c-.147-.128-.294-.351-.421.015-.147.275.172.709-.294.881-.534.192-1.047.529-1.649.181a1.4,1.4,0,0,0-1.268-.078c-.217.087-.42.161-.537-.135a12.238,12.238,0,0,0-2.466.926,4.845,4.845,0,0,0-2.2,2.116,3.751,3.751,0,0,1-1.631,1.453,1.108,1.108,0,0,1-.763-.037c-.2-.043-.37-.026-.27.277.319.984.126,1.452-.829,2.055-.12-.28.065-.5.147-.734a.282.282,0,0,0-.106-.37c-.122-.07-.233,0-.335.068a1.986,1.986,0,0,0-.568.763c-.119.217-.253.44-.543.388s-.294-.294-.322-.517l-.835-.163a8.982,8.982,0,0,1,.115-2.005c.018-.025.032-.05.05-.075a.966.966,0,0,0,1.053-.759.658.658,0,0,1,.44-.625c.457-.029.881-.1.9-.7a.393.393,0,0,1,.248-.322c.277-.043.606.164.827-.172l.09-.009a1.436,1.436,0,0,0,.759-.633,1.9,1.9,0,0,1,1.307-.75A3.725,3.725,0,0,0,25.6,16.133a12.019,12.019,0,0,1,1.652-1.292c.057-.05.159-.109.214-.088.709.248,1.333-.135,1.992-.25a1.2,1.2,0,0,0,.881-.454c.034-.048.115-.125.128-.117.6.385,1.036-.2,1.559-.248a.2.2,0,0,1,.247.2c.012.677.336.294.556.157a3.964,3.964,0,0,0,.487-.44c-.3-.173-.577-.332-.85-.486-.109-.062-.214-.129-.214-.267a.277.277,0,0,1,.27-.276c.537-.082.969-.539,1.63-.279a.872.872,0,0,0,1.144-.622c.157-.5.636-.575,1.028-.768.42-.211.909-.294,1.114-.827.113-.294.462-.294.721-.385,1.069-.392,2.139-.78,3.212-1.155a3.808,3.808,0,0,1,1.136-.09c.238-.01.5.023.665-.2.132-.172.3-.349.495-.182.239.21.665.257.683.686,0,.179,0,.361-.01.542.888.7,1.085,1.909,1.931,2.643a.458.458,0,0,1,.041.652,3.332,3.332,0,0,1-.351.4c-.17.179-.471.294-.37.618a.452.452,0,0,0,.2.258c.078-.053.16-.1.236-.16a1.425,1.425,0,0,1,.881.01c.157.021.377.138.461.026.283-.374.758-.448,1.067-.724s.5-.286.769-.034a1.762,1.762,0,0,1,.5.661.368.368,0,0,0,.671.059c.113-.2.349-.188.508-.364-.07-.267-.479-.376-.4-.734.048-.233.23-.37.344-.556a.7.7,0,0,1,.687-.28,1.553,1.553,0,0,0,1.155-.414c.627-.138.973.341,1.329.683a1.923,1.923,0,0,0,2.33.577c.357-.161.7.119.963.364.185.17.147.354-.123.458a1.321,1.321,0,0,1-1.05.092c-.138-.059-.294-.16-.458-.021.07.258.33.335.492.5-.078.119-.154.239-.233.357-.294.078-.634.206-.524.573.094.311.458.238.734.235.176,0,.367-.23.521.04a8.074,8.074,0,0,1-1.694.305,1.343,1.343,0,0,1-.734-.2.527.527,0,0,0-.661-.016.774.774,0,0,1-1.1-.294,2.949,2.949,0,0,0-.159-.322.407.407,0,0,0-.493-.113c-.1.034-.188.106-.17.219.054.3.327,0,.468.189-.376.417-.283.755.242.991a.5.5,0,0,1,.313.52c0,.655.247.881.915.888s1.321-.023,1.988,0c.338.016.743,0,.686.587-.012.1.44.294.7.371.308.1.625.175.934.294a.379.379,0,0,1,.217-.1,1.16,1.16,0,0,1,.505.051c.351.087.578.413.934.5.131.116.329.211.417.046.3-.575.744-.294,1.145-.226.339.056.662.294.831-.3.087-.305.511-.232.775-.063.16.1.277.241.457.051.6,0,1.174.06,1.445.734.053.109.1.219.159.326.125.239.182.636.54.526.4-.122,1,.046,1.111-.611h0a6.589,6.589,0,0,0,1.687.487,1.284,1.284,0,0,1-.185.305c-.214.2-.531.338-.351.716a1.07,1.07,0,0,0,.931.653,3.922,3.922,0,0,1,.715.072c.4.112.827.242.963.713a.888.888,0,0,0,1.192.674,1.085,1.085,0,0,1,1.126.122.759.759,0,0,0,.642.063,1.533,1.533,0,0,1,1.69.643.524.524,0,0,0,.881.147,2.615,2.615,0,0,1,1.675.536,1.15,1.15,0,0,0,.734.181,1.085,1.085,0,0,0,.881.294.973.973,0,0,1,.809.43c.793.31,1.583.625,2.378.928a2.887,2.887,0,0,1,.305.129,2.576,2.576,0,0,0,.117-.38c.063-.294.223-.53.57-.486s.492-.094.587-.415a.587.587,0,0,1,.661-.393.54.54,0,0,1,.562.41,1.842,1.842,0,0,0,.364.511,8.133,8.133,0,0,1-.981-1.985c-.2-.44-.734-.471-.847-.926s-.046-.97-.44-1.311c-.42-.368-.2-.768-.1-1.166.026-.11.147-.125.245-.147.021,0,.031.015.05.018.016-.1-.094-.16-.2-.22v-.625c.617.509,1.2.922,1.693,1.42a4.629,4.629,0,0,0,.7.542c.166.267.327.539.489.809-.041.01-.078.021-.123.028,0,.119.01.238.016.357-.05.132-.1.263-.147.4-.094.294-.233.418-.5.147-.113-.112-.272-.264-.411-.125s.04.294.138.4c.236.263.686.44.324.915a.113.113,0,0,0,.037.1c.658.247.734,1.174,1.517,1.285.272.035.364.219.236.489a.479.479,0,0,0,.1.609c.22.178.23-.123.345-.194a.138.138,0,0,1,.21.04c.113.211.272.462.094.671a.668.668,0,0,0-.106.91c.106.166.056.294-.206.275-.405-.041-.418.294-.482.562-.087.36.179.333.411.423.294.116.4.458.575.716a6.152,6.152,0,0,1,.464,1.354.423.423,0,0,1-.147.539,1.4,1.4,0,0,0-.536,1.216,4.4,4.4,0,0,0,.132,2.045c.258.614.744.681,1.151.9.763.421,1.028.8.819,1.635a1.649,1.649,0,0,0,.01.931c.138.464.391.92.122,1.433-.075.147.059.3.185.414A1.478,1.478,0,0,1,90.55,42.6a.276.276,0,0,1-.116.126Z" fill="#475267"/>
    </g>
  </g>
</svg>
