<svg xmlns="http://www.w3.org/2000/svg" width="269.739" height="237.43" viewBox="0 0 269.739 237.43">
  <path id="Trazado_48" data-name="Trazado 48" d="M269.739,108.841a6.228,6.228,0,0,0-.882-3.278L228.732,34.439A6.641,6.641,0,0,0,223,31.05H46.683a6.528,6.528,0,0,0-5.732,3.389L.882,105.563A6.783,6.783,0,0,0,0,108.841a39.016,39.016,0,0,0,23.149,35.673v117.3a6.661,6.661,0,0,0,6.614,6.668H239.921a6.661,6.661,0,0,0,6.614-6.668V145.347a2.959,2.959,0,0,0-.055-.722A39.124,39.124,0,0,0,269.739,108.841Zm-219.2-64.4h168.6L250.5,100.062H19.236Zm141.428,68.9a25.384,25.384,0,0,1-50.046,0Zm-64.1,0a25.417,25.417,0,0,1-50.1,0Zm-114.2,0h50.1a25.417,25.417,0,0,1-50.1,0Zm97.445,141.8H73.084V183.187a9.459,9.459,0,0,1,9.425-9.5h19.236a9.459,9.459,0,0,1,9.425,9.5v71.957Zm122.193,0H124.342V183.187a22.78,22.78,0,0,0-22.653-22.837H82.454A22.78,22.78,0,0,0,59.8,183.187V255.2H36.377V147.792c.772.056,1.543.056,2.315.056a38.56,38.56,0,0,0,32.078-17.225,38.481,38.481,0,0,0,64.155,0,38.378,38.378,0,0,0,64.045,0,38.56,38.56,0,0,0,32.078,17.225c.772,0,1.488-.056,2.26-.056V255.144Zm-2.26-120.632A25.465,25.465,0,0,1,206.024,113.4h50.1A25.62,25.62,0,0,1,231.047,134.512Z" transform="translate(0 -31.05)" fill="#384358"/>
</svg>
