<svg xmlns="http://www.w3.org/2000/svg" width="34.75" height="48.966" viewBox="0 0 34.75 48.966">
  <g id="lock-fill" transform="translate(-2.5 -0.5)">
    <path id="Trazado_102" data-name="Trazado 102" d="M2.5,13.318A6.318,6.318,0,0,1,8.818,7H30.932a6.318,6.318,0,0,1,6.318,6.318v15.8a6.318,6.318,0,0,1-6.318,6.318H8.818A6.318,6.318,0,0,1,2.5,29.114Z" transform="translate(0 14.034)" fill="#a4a4a4"/>
    <path id="Trazado_103" data-name="Trazado 103" d="M4.5,11.557a11.057,11.057,0,0,1,22.114,0v9.477H23.455V11.557a7.9,7.9,0,1,0-15.8,0v9.477H4.5Z" transform="translate(4.318)" fill="#a4a4a4" fill-rule="evenodd"/>
  </g>
</svg>
