<svg id="person-circle" xmlns="http://www.w3.org/2000/svg" width="43.75" height="43.75" viewBox="0 0 43.75 43.75">
  <path id="Trazado_60" data-name="Trazado 60" d="M32.435,16.48C30.494,13.352,26.22,10,17.484,10S4.476,13.35,2.532,16.48a19.139,19.139,0,0,0,29.9,0Z" transform="translate(4.391 17.344)" fill="#a4a4a4"/>
  <path id="Trazado_61" data-name="Trazado 61" d="M13.2,19.406A8.2,8.2,0,1,0,5,11.2,8.2,8.2,0,0,0,13.2,19.406Z" transform="translate(8.672 5.203)" fill="#a4a4a4" fill-rule="evenodd"/>
  <path id="Trazado_62" data-name="Trazado 62" d="M21.875,2.734A19.141,19.141,0,1,0,41.016,21.875,19.141,19.141,0,0,0,21.875,2.734ZM0,21.875A21.875,21.875,0,1,1,21.875,43.75,21.875,21.875,0,0,1,0,21.875Z" fill="#a4a4a4" fill-rule="evenodd"/>
</svg>
